HIERARCHY
ROOT hip
{
  OFFSET 0.0 0.0 0.0
  CHANNELS 6 Xposition Yposition Zposition Zrotation Yrotation Xrotation
  JOINT torso
  {
    OFFSET 0.0 0.0 0.0
    CHANNELS 3 Zrotation Xrotation Yrotation
    JOINT neck
    {
      OFFSET -31.42098999999993 328.8025209999999 74.3554680000002
      CHANNELS 3 Zrotation Xrotation Yrotation
      JOINT head
      {
        OFFSET 3.3519900000001144 303.81732099999994 206.53942900000015
        CHANNELS 3 Zrotation Xrotation Yrotation
        End Site
        {
          OFFSET 0.0 0.0 0.0
        }
      }
    }
    JOINT left_collar
    {
      OFFSET -31.42098999999993 328.8025209999999 74.3554680000002
      CHANNELS 3 Zrotation Xrotation Yrotation
      JOINT left_upper_arm
      {
        OFFSET -124.490479 -8.162841999999841 8.226441000000023
        CHANNELS 3 Zrotation Xrotation Yrotation
        JOINT left_forearm
        {
          OFFSET -253.595764 -1.5758060000000569 105.0729980000001
          CHANNELS 3 Zrotation Xrotation Yrotation
          JOINT left_hand
          {
            OFFSET -269.48803699999996 0.1478270000000066 -55.346191999999974
            CHANNELS 3 Zrotation Xrotation Yrotation
            End Site
            {
              OFFSET 0.0 0.0 0.0
            }
          }
        }
      }
    }
    JOINT right_collar
    {
      OFFSET -31.42098999999993 328.8025209999999 74.3554680000002
      CHANNELS 3 Zrotation Xrotation Yrotation
      JOINT right_upper_arm
      {
        OFFSET 162.02484099999998 0.46441600000002836 2.2303470000001653
        CHANNELS 3 Zrotation Xrotation Yrotation
        JOINT right_forearm
        {
          OFFSET 240.01246700000004 -25.835875999999985 121.34179699999959
          CHANNELS 3 Zrotation Xrotation Yrotation
          JOINT right_hand
          {
            OFFSET 252.48539699999992 18.910399999999868 -67.53466800000001
            CHANNELS 3 Zrotation Xrotation Yrotation
            End Site
            {
              OFFSET 0.0 0.0 0.0
            }
          }
        }
      }
    }
  }
}
MOTION
Frames: 8
Frame Time: 0.01
-492.2943534057237 188.33001033715703 878.6044367642679 -6.6779157968234415 -10.815067446174304 -15.932152776916897 1.526926957336263 -1.7526672840635742 -0.5350054542835047 -5.51787424533955 -9.000176895953077 4.070709167138355 0.0 0.0 0.0 5.961343470272458 -0.5596111635999514 8.101183415899216 34.84923417638563 9.854473126781885 14.099454125468597 61.41415263217242 24.192927788134547 -62.95690955111217 0.0 0.0 0.0 2.42774866978514 -0.1818574124633927 6.158440228545287 -27.53678745374731 3.8046172055028054 -27.83201918057553 -36.49024498995569 10.659266626738818 77.29632947287651 0.0 0.0 0.0
-494.78293505330305 188.3956501703167 881.6600116912874 -6.987597304710115 -10.821968892202644 -15.963497958797952 1.8541839828848536 -1.7379556317898208 -0.6124039530772476 -5.477446897006021 -9.09329284397392 4.04463995270075 0.0 0.0 0.0 5.954625052874811 -0.5581767752405907 8.089284841517294 34.83950550063969 9.819175544290976 14.194179777282855 60.104256696888356 24.105035781375634 -63.78716707409058 0.0 0.0 0.0 2.450584066606815 -0.18362301620997848 6.167502177330795 -27.42822133723199 3.6493168487469014 -28.192382307238404 -37.32958493585833 11.024949756705754 77.21219114521443 0.0 0.0 0.0
-497.20226668756555 188.45403637931832 884.5922317721629 -7.188638061326624 -10.839481076735037 -16.00219501165913 2.0921406672167935 -1.700973762907223 -0.6657102249460514 -5.44657185868234 -9.184104574263863 4.025359513696438 0.0 0.0 0.0 5.940715339629518 -0.5561228508932977 8.072401395164208 34.83120453073756 9.783703628941115 14.290767998528196 58.847614221416855 23.98695267634146 -64.55418695947768 0.0 0.0 0.0 2.464203029822913 -0.1846771679586643 6.172882785927386 -27.322359731820082 3.49487854880714 -28.555007894777496 -38.21183539772685 11.406703206369546 77.11630291451308 0.0 0.0 0.0
-499.56697894954095 188.51360869888651 887.4025787156195 -7.287329247038764 -10.865533445570579 -16.046142474653244 2.245677336418244 -1.644796046942208 -0.6963685451360399 -5.424696404637615 -9.272304712547651 4.012470126972263 0.0 0.0 0.0 5.920292093079169 -0.5535359068159471 8.051200280569944 34.82443125469994 9.748539749495857 14.387883335885071 57.65533633925656 23.844322719020752 -65.25348264906472 0.0 0.0 0.0 2.469158973642535 -0.18505968206625478 6.174783207979985 -27.21922391812398 3.341437770695208 -28.919452762362205 -39.13303872437779 11.80133868965279 77.00525076114269 0.0 0.0 0.0
-501.89265648916813 188.58100164408953 890.0942786738708 -7.291714478274779 -10.898002775192722 -16.0933848263768 2.3213387752228662 -1.5725308580490196 -0.7063316739379588 -5.411147932580971 -9.357451413392022 4.005481816046707 0.0 0.0 0.0 5.894175146394206 -0.5505168135936949 8.02646043585493 34.81931288754112 9.714186277748242 14.484150834975324 56.536701957426466 23.683169444138052 -65.88248584074825 0.0 0.0 0.0 2.4661922452701335 -0.18482876925346706 6.173567542035447 -27.118969624963633 3.1892268642480377 -29.28507842938226 -40.08879983000621 12.205487674694941 76.8761546247714 0.0 0.0 0.0
-504.19561529761114 188.66072778666833 892.672613172353 -7.2111750014068425 -10.93481324768551 -16.142132870730375 2.3269503580839603 -1.487310538806607 -0.6979326940566257 -5.405168641006421 -9.438933361563258 4.003836043184945 0.0 0.0 0.0 5.863304920803341 -0.5471773885226918 7.999052117239816 34.81603531880174 9.681170909968516 14.578168088098328 55.49910330060554 23.509590687953935 -66.44039519422897 0.0 0.0 0.0 2.456201420427216 -0.18405862591885297 6.169761011545314 -27.021938242253125 3.03858510091772 -29.651045359226927 -41.07423697115997 12.615629167872065 76.72676284468183 0.0 0.0 0.0
-506.49267152852843 188.75495342784038 895.1451761267734 -7.056023064040867 -10.974018530188365 -16.19077613370691 2.2712400512989306 -1.3923019515173884 -0.6737615324378594 -5.405947858485199 -9.515939180896787 4.0069278987872226 0.0 0.0 0.0 5.828721503633114 -0.5436367037528157 7.969913566753385 34.81487370970126 9.650051556487718 14.668517577136333 54.54806916276146 23.329492244578525 -66.92796003244439 0.0 0.0 0.0 2.4402135527677564 -0.18283661806586254 6.164041276348219 -26.928705086868455 2.8899658520302824 -30.01631040919708 -42.0839401932723 13.028128470687342 76.55553418654428 0.0 0.0 0.0
-508.80090265482295 188.863373637058 897.5220598572646 -6.8371158208346205 -11.013864163492444 -16.23788905731445 2.1634789949646764 -1.2907289126357258 -0.6365507717566465 -5.4126507105294515 -9.587433473839333 4.014125896844251 0.0 0.0 0.0 5.791544529882813 -0.5400171878051211 7.94002464767162 34.8162194860279 9.62141991063293 14.753779681882348 53.68734888413135 23.148370841646436 -67.34722375517926 0.0 0.0 0.0 2.4193542502104735 -0.181260198995802 6.157222319600414 -26.840121536596246 2.743940259666694 -30.37962792245647 -43.1119411421729 13.439286561930228 76.36170461635989 0.0 0.0 0.0
